<svg class="icon" viewBox="0 0 1024 1024" xmlns="http://www.w3.org/2000/svg" width="200" height="200"><defs><style/></defs><path d="M509.544.04l5.894.083 4.625.655L525.3 2.21l4.339 1.76 439.64 220.68a40.927 40.927 0 0 1-32.332 75.02l-4.38-1.883L512 86.684 91.431 297.787a40.927 40.927 0 0 1-52.55-14.08l-2.456-4.133a40.927 40.927 0 0 1 14.08-52.55l4.174-2.374L496.284 3.11l4.215-1.473 4.339-1.023 4.706-.573z"/><path d="M511.59 528.084l5.935-.368 4.502-.86 3.315-.982 3.315-1.35 440.623-221.09a40.927 40.927 0 0 0-32.332-75.06l-4.38 1.883L512 441.44 91.431 230.216a40.927 40.927 0 0 0-52.55 14.12l-2.415 4.133a40.927 40.927 0 0 0 14.08 52.551l4.174 2.415 440.623 221.089 4.42 1.678 3.274.9 4.215.737 4.339.245z"/><path d="M511.59 753.184l5.935-.368 4.502-.86 3.315-.982 3.315-1.35 440.623-221.09a40.927 40.927 0 0 0-32.332-75.06l-4.38 1.883L512 666.54 91.431 455.357a40.927 40.927 0 0 0-52.55 14.079l-2.415 4.133a40.927 40.927 0 0 0 14.08 52.55l4.174 2.416 440.623 221.089 4.42 1.678 3.274.9 4.215.737 4.339.245z"/><path d="M511.59 998.748l5.935-.368 4.502-.86 3.315-.982 3.315-1.35 440.623-221.09a40.927 40.927 0 0 0-32.332-75.06l-4.38 1.882L512 912.105 91.431 700.92A40.927 40.927 0 0 0 38.881 715l-2.415 4.133a40.927 40.927 0 0 0 14.08 52.55l4.174 2.415 440.623 221.09 4.42 1.677 3.274.9 4.215.737 4.339.246z"/></svg>